<svg xmlns="http://www.w3.org/2000/svg" viewBox="0 0 24 24" width="24" height="24" color="#ffffff" fill="none">
    <defs>
        <filter id="dropshadow" height="130%">
            <feGaussianBlur in="SourceAlpha" stdDeviation="2"/>
            <feOffset dx="0" dy="-1" result="offsetblur"/>
            <feFlood flood-color="black" flood-opacity="0.07"/>
            <feComposite in2="offsetblur" operator="in"/>
            
            <feMerge>
                <feMergeNode/>
                <feMergeNode in="SourceGraphic"/>
            </feMerge>
        </filter>
    </defs>
    
    <path d="M13.6177 21.367C13.1841 21.773 12.6044 22 12.0011 22C11.3978 22 10.8182 21.773 10.3845 21.367C6.41302 17.626 1.09076 13.4469 3.68627 7.37966C5.08963 4.09916 8.45834 2 12.0011 2C15.5439 2 18.9126 4.09916 20.316 7.37966C22.9082 13.4393 17.599 17.6389 13.6177 21.367Z" stroke="currentColor" stroke-width="1.5" fill='green' filter="url(#dropshadow)" />
    <path d="M15.5 11C15.5 12.933 13.933 14.5 12 14.5C10.067 14.5 8.5 12.933 8.5 11C8.5 9.067 10.067 7.5 12 7.5C13.933 7.5 15.5 9.067 15.5 11Z" stroke="white" stroke-width="1.5" fill="white" />
</svg>