<?xml version="1.0" encoding="utf-8"?>
<svg width="50px" height="50px" viewBox="0 0 50 50" version="1.1" xmlns:xlink="http://www.w3.org/1999/xlink" xmlns="http://www.w3.org/2000/svg">
  <defs>
    <path d="M40 0C45.5236 0 50 4.4764 50 10L50 40C50 45.5236 45.5236 50 40 50L10 50C4.47639 50 0 45.5236 0 40L0 10C0 4.4764 4.47639 0 10 0L40 0Z" id="path_1" />
    <clipPath id="clip_1">
      <use xlink:href="#path_1" clip-rule="evenodd" fill-rule="evenodd" />
    </clipPath>
  </defs>
  <g id="dice-2">
    <path d="M40 0C45.5236 0 50 4.4764 50 10L50 40C50 45.5236 45.5236 50 40 50L10 50C4.47639 50 0 45.5236 0 40L0 10C0 4.4764 4.47639 0 10 0L40 0Z" id="dice-2" fill="#FFFFFF" fill-opacity="0" stroke="none" />
    <path d="M10 16C10 12.6863 12.6863 10 16 10C19.3137 10 22 12.6863 22 16C22 19.3137 19.3137 22 16 22C12.6863 22 10 19.3137 10 16Z" id="Oval" fill="#000000" fill-rule="evenodd" stroke="none" clip-path="url(#clip_1)" />
    <path d="M28 34C28 30.6863 30.6863 28 34 28C37.3137 28 40 30.6863 40 34C40 37.3137 37.3137 40 34 40C30.6863 40 28 37.3137 28 34Z" id="Oval-3" fill="#000000" fill-rule="evenodd" stroke="none" clip-path="url(#clip_1)" />
  </g>
</svg>