<?xml version="1.0" encoding="utf-8"?>
<svg width="1054px" height="368px" viewBox="0 0 1054 368" version="1.1" xmlns:xlink="http://www.w3.org/1999/xlink" xmlns="http://www.w3.org/2000/svg">
  <defs>
    <path d="M1054 0L1054 0L1054 368L0 368L0 0L1054 0Z" id="path_1" />
    <path d="M269 0L269 0L269 269L0 269L0 0L269 0Z" id="path_2" />
    <path d="M227 0L227 0L227 227L0 227L0 0L227 0Z" id="path_3" />
    <path d="M206 0L206 0L206 206L0 206L0 0L206 0Z" id="path_4" />
    <clipPath id="clip_1">
      <use xlink:href="#path_1" clip-rule="evenodd" fill-rule="evenodd" />
    </clipPath>
    <clipPath id="clip_2">
      <use xlink:href="#path_2" clip-rule="evenodd" fill-rule="evenodd" />
    </clipPath>
    <clipPath id="clip_3">
      <use xlink:href="#path_3" clip-rule="evenodd" fill-rule="evenodd" />
    </clipPath>
    <clipPath id="clip_4">
      <use xlink:href="#path_4" clip-rule="evenodd" fill-rule="evenodd" />
    </clipPath>
  </defs>
  <g id="G-spot  logo">
    <path d="M1054 0L1054 0L1054 368L0 368L0 0L1054 0Z" id="G-spot--logo" fill="#FFFFFF" fill-opacity="0" stroke="none" />
    <g id="SVGRepo_iconCarrier" transform="translate(40 28)" clip-path="url(#clip_1)">
      <path d="M307 272.889C307 291.728 291.728 307 272.889 307L34.1111 307C15.2721 307 0 291.728 0 272.889L0 34.1111C2.03318e-06 15.2721 15.2721 0 34.1111 0L272.889 0C291.728 0 307 15.2721 307 34.1111L307 272.889L307 272.889Z" id="Shape" fill="#3B88C3" stroke="none" />
      <path d="M218.823 135.72C235.478 135.72 242.095 144.179 242.095 161.107C242.095 212.137 208.786 250.478 155.896 250.478C102.222 250.478 64.939 207.907 64.939 153.176C64.939 98.1803 101.958 55.874 155.896 55.874C195.823 55.874 228.604 74.6436 228.604 93.1574C228.604 104.525 221.475 111.663 212.214 111.663C194.237 111.663 190.536 92.3643 155.896 92.3643C122.851 92.3643 106.188 121.18 106.188 153.176C106.188 185.428 122.322 213.996 155.896 213.996C176.789 213.996 200.855 202.356 200.855 172.218L173.873 172.218C163.034 172.218 155.368 164.552 155.368 153.713C155.368 142.61 163.827 135.737 173.873 135.737L218.823 135.737L218.823 135.72Z" id="Shape" fill="#FFFFFF" stroke="none" />
    </g>
    <g id="Frame 4" clip-path="url(#clip_1)">
      <path d="M269 0L269 0L269 269L0 269L0 0L269 0Z" id="Frame-4" fill="none" stroke="none" transform="translate(780 66)" />
      <path d="M235.04 32.28L33.9613 32.28C31.3553 32.28 29.2537 34.3816 29.2537 36.9875L29.2537 74.795C29.2537 77.4009 31.3553 79.5025 33.9613 79.5025L106.781 79.5025L106.781 249.163C106.781 251.769 108.883 253.871 111.489 253.871L157.513 253.871C160.119 253.871 162.221 251.769 162.221 249.163L162.221 79.5025L235.04 79.5025C237.646 79.5025 239.748 77.4009 239.748 74.795L239.748 36.9875C239.748 34.3816 237.646 32.28 235.04 32.28L235.04 32.28Z" id="SVGRepo_iconCarrier" fill="#3B88C3" stroke="none" clip-path="url(#clip_2)" transform="translate(780 66)" />
    </g>
    <g id="Frame 4" clip-path="url(#clip_1)">
      <path d="M227 0L227 0L227 227L0 227L0 0L227 0Z" id="Frame-4" fill="none" stroke="none" transform="matrix(1.0000018 0 0 1.0000018 323.6985 105.51236)" />
      <path d="M168.291 126.528C153.963 112.998 129.597 101.719 113.478 94.2536C110.747 92.9946 108.282 91.8596 106.189 90.8488C100.107 87.9229 91.7899 79.8188 95.3721 70.5088C97.7838 64.2135 103.902 61.0393 113.584 61.0393C116.687 61.0393 120.092 61.3939 123.728 62.0678C136.354 64.4263 145.929 69.1434 151.356 71.8211C152.03 72.158 152.81 72.1935 153.519 71.9452C154.211 71.6792 154.796 71.1472 155.098 70.4556L167.529 42.4194C168.078 41.1958 167.653 39.7417 166.518 38.9969C157.758 33.1804 135.892 24.5443 111.598 24.5443C108.087 24.5443 104.593 24.7217 101.189 25.0763C81.8239 27.0624 62.4238 32.2228 51.6775 56.3577C44.9743 71.3777 44.9921 88.2953 51.6952 100.496C58.8595 113.813 70.5988 119.772 85.4592 127.291L87.3745 128.266C98.103 133.621 110.96 139.58 119.418 143.499C131.92 149.528 136.549 160.239 133.676 166.694C129.047 177.103 118.815 179.391 101.118 174.372C85.4948 170.134 71.0776 158.164 67.0522 154.6C66.4493 154.068 65.6513 153.819 64.8355 153.926C64.0376 154.032 63.3282 154.493 62.8849 155.149L43.6266 184.675C42.8996 185.793 43.0591 187.264 44.0167 188.187C54.0005 197.816 62.1401 203.419 76.2379 210.353C85.7252 215.017 99.6103 217.818 113.389 217.818C127.788 217.818 162.953 214.485 178.381 183.665C188.223 163.945 184.552 143.162 168.291 126.528L168.291 126.528Z" id="SVGRepo_iconCarrier" fill="#3B88C3" stroke="none" clip-path="url(#clip_3)" transform="matrix(1.0000018 0 0 1.0000018 323.6985 105.51236)" />
    </g>
    <g id="Frame" clip-path="url(#clip_1)">
      <path d="M269 0L269 0L269 269L0 269L0 0L269 0Z" id="Frame" fill="none" stroke="none" transform="translate(463 66)" />
      <path d="M152.39 32.4061L72.8204 32.4061C72.5051 32.4061 72.2319 32.5322 71.9376 32.5742L58.3397 32.5742C55.7336 32.5742 53.6319 34.6759 53.6319 37.282L53.6319 249.49C53.6319 252.096 55.7336 254.198 58.3397 254.198L104.367 254.198C106.973 254.198 109.075 252.096 109.075 249.49L109.075 182.068L152.39 182.068C194.067 182.068 227.967 148.504 227.967 107.247C227.988 65.9911 194.067 32.4061 152.39 32.4061L152.39 32.4061ZM148.776 137.953C148.04 138.016 147.304 138.079 146.548 138.079L109.873 138.079C109.768 138.079 109.684 137.995 109.579 137.953C109.396 137.928 109.222 137.855 109.075 137.743C108.804 137.52 108.643 137.19 108.633 136.839L108.633 77.6345C108.633 77.2562 108.822 76.962 109.075 76.7308C109.201 76.6047 109.369 76.5837 109.537 76.5416C109.663 76.4996 109.726 76.4155 109.852 76.4155L146.527 76.4155C147.367 76.4155 148.208 76.4786 149.028 76.5416C164.265 77.8657 176.287 91.1274 176.287 107.247C176.308 123.451 164.16 136.776 148.776 137.953L148.776 137.953Z" id="SVGRepo_iconCarrier" fill="#3B88C3" fill-rule="evenodd" stroke="none" clip-path="url(#clip_2)" transform="translate(463 66)" />
    </g>
    <g id="Frame 4" clip-path="url(#clip_1)">
      <path d="M206 0L206 0L206 206L0 206L0 0L206 0Z" id="Frame-4" fill="none" stroke="none" transform="translate(677 129)" />
      <path d="M103.017 24.2372C48.0886 24.2372 13.7601 63.0237 13.7601 110.855C13.7601 158.703 48.0886 197.473 103.017 197.473C157.93 197.473 192.259 158.686 192.259 110.855C192.243 63.0076 157.93 24.2372 103.017 24.2372L103.017 24.2372ZM103.017 155.854C74.4828 155.854 56.6345 135.704 56.6345 110.855C56.6345 86.006 74.4667 65.8563 103.017 65.8563C131.552 65.8563 149.384 86.006 149.384 110.855C149.368 135.704 131.536 155.854 103.017 155.854L103.017 155.854Z" id="SVGRepo_iconCarrier" fill="#3B88C3" fill-rule="evenodd" stroke="none" clip-path="url(#clip_4)" transform="translate(677 129)" />
    </g>
  </g>
</svg>