<?xml version="1.0" encoding="utf-8"?>
<svg width="1084px" height="363px" viewBox="0 0 1084 363" version="1.1" xmlns:xlink="http://www.w3.org/1999/xlink" xmlns="http://www.w3.org/2000/svg">
  <defs>
    <path d="M1084 0L1084 0L1084 363L0 363L0 0L1084 0Z" id="path_1" />
    <path d="M0 0L693 0L693 490L0 490L0 0Z" id="path_2" />
    <clipPath id="clip_1">
      <use xlink:href="#path_1" clip-rule="evenodd" fill-rule="evenodd" />
    </clipPath>
    <clipPath id="clip_2">
      <use xlink:href="#path_2" clip-rule="evenodd" fill-rule="evenodd" transform="translate(0, -84.979996)" />
    </clipPath>
  </defs>
  <g id="Gi-ROW">
    <path d="M1084 0L1084 0L1084 363L0 363L0 0L1084 0Z" id="Gi-ROW" fill="#FFFFFF" fill-opacity="0" stroke="none" />
    <path d="M76 28L347 28L347 335L76 335Q75.1162 335 74.2336 334.957Q73.3509 334.913 72.4714 334.827Q71.5919 334.74 70.7177 334.61Q69.8435 334.481 68.9767 334.308Q68.11 334.136 67.2527 333.921Q66.3954 333.706 65.5497 333.45Q64.704 333.193 63.872 332.896Q63.0399 332.598 62.2234 332.26Q61.4069 331.921 60.608 331.544Q59.8091 331.166 59.0297 330.749Q58.2503 330.333 57.4923 329.878Q56.7343 329.424 55.9995 328.933Q55.2647 328.442 54.5548 327.915Q53.845 327.389 53.1618 326.828Q52.4787 326.268 51.8239 325.674Q51.1691 325.081 50.5442 324.456Q49.9192 323.831 49.3258 323.176Q48.7323 322.521 48.1716 321.838Q47.611 321.155 47.0845 320.445Q46.5581 319.735 46.0671 319Q45.5761 318.266 45.1218 317.508Q44.6674 316.75 44.2508 315.97Q43.8342 315.191 43.4564 314.392Q43.0785 313.593 42.7403 312.777Q42.4021 311.96 42.1044 311.128Q41.8067 310.296 41.5501 309.45Q41.2936 308.604 41.0789 307.747Q40.8641 306.89 40.6917 306.023Q40.5193 305.156 40.3896 304.282Q40.26 303.408 40.1733 302.529Q40.0867 301.649 40.0434 300.766Q40 299.884 40 299L40 64Q40 63.1162 40.0434 62.2336Q40.0867 61.3509 40.1733 60.4714Q40.26 59.5919 40.3896 58.7177Q40.5193 57.8435 40.6917 56.9767Q40.8641 56.11 41.0789 55.2527Q41.2936 54.3954 41.5501 53.5498Q41.8067 52.7041 42.1044 51.872Q42.4021 51.0399 42.7403 50.2234Q43.0785 49.4069 43.4564 48.608Q43.8342 47.8091 44.2508 47.0297Q44.6674 46.2503 45.1218 45.4923Q45.5761 44.7343 46.0671 43.9995Q46.5581 43.2647 47.0845 42.5548Q47.611 41.845 48.1716 41.1618Q48.7323 40.4787 49.3258 39.8239Q49.9192 39.1691 50.5442 38.5442Q51.1691 37.9192 51.8239 37.3258Q52.4787 36.7323 53.1618 36.1716Q53.845 35.611 54.5548 35.0845Q55.2647 34.5581 55.9995 34.0671Q56.7343 33.5761 57.4923 33.1218Q58.2503 32.6674 59.0297 32.2508Q59.8091 31.8342 60.608 31.4564Q61.4069 31.0785 62.2234 30.7403Q63.0399 30.4021 63.872 30.1044Q64.704 29.8067 65.5497 29.5501Q66.3954 29.2936 67.2527 29.0789Q68.11 28.8641 68.9767 28.6917Q69.8435 28.5193 70.7177 28.3896Q71.5919 28.26 72.4714 28.1734Q73.3509 28.0867 74.2336 28.0434Q75.1162 28 76 28Z" id="Gi-back" fill="#3B88C3" fill-rule="evenodd" stroke="none" clip-path="url(#clip_1)" />
    <path d="M236.884 163.846C253.539 163.846 260.156 172.305 260.156 189.233C260.156 240.263 226.847 278.604 173.957 278.604C120.283 278.604 83 236.033 83 181.302C83 126.306 120.019 84 173.957 84C213.884 84 246.665 102.77 246.665 121.283C246.665 132.651 239.536 139.789 230.275 139.789C212.298 139.789 208.597 120.49 173.957 120.49C140.912 120.49 124.249 149.306 124.249 181.302C124.249 213.554 140.383 242.122 173.957 242.122C194.85 242.122 218.916 230.482 218.916 200.344L191.934 200.344C181.095 200.344 173.429 192.678 173.429 181.839C173.429 170.736 181.888 163.863 191.934 163.863L236.884 163.863L236.884 163.846Z" id="Shape" fill="#FFFFFF" fill-rule="evenodd" stroke="none" clip-path="url(#clip_1)" />
    <path d="M286 172.126L286 172.126Q286.442 172.126 286.883 172.148Q287.324 172.169 287.764 172.213Q288.204 172.256 288.641 172.321Q289.078 172.386 289.512 172.472Q289.945 172.558 290.374 172.665Q290.802 172.773 291.225 172.901Q291.648 173.029 292.064 173.178Q292.48 173.327 292.888 173.496Q293.296 173.665 293.696 173.854Q294.095 174.043 294.485 174.251Q294.875 174.46 295.254 174.687Q295.633 174.914 296 175.16Q296.368 175.405 296.723 175.668Q297.077 175.931 297.419 176.212Q297.761 176.492 298.088 176.789Q298.415 177.086 298.728 177.398Q299.04 177.71 299.337 178.038Q299.634 178.365 299.914 178.707Q300.194 179.048 300.458 179.403Q300.721 179.758 300.966 180.126Q301.212 180.493 301.439 180.872Q301.666 181.251 301.875 181.641Q302.083 182.03 302.272 182.43Q302.461 182.829 302.63 183.238Q302.799 183.646 302.948 184.062Q303.097 184.478 303.225 184.901Q303.353 185.324 303.461 185.752Q303.568 186.181 303.654 186.614Q303.74 187.048 303.805 187.485Q303.87 187.922 303.913 188.362Q303.957 188.801 303.978 189.243Q304 189.684 304 190.126L304 256.126Q304 256.568 303.978 257.01Q303.957 257.451 303.913 257.891Q303.87 258.331 303.805 258.768Q303.74 259.205 303.654 259.638Q303.568 260.072 303.461 260.5Q303.353 260.929 303.225 261.352Q303.097 261.774 302.948 262.191Q302.799 262.607 302.63 263.015Q302.461 263.423 302.272 263.822Q302.083 264.222 301.875 264.612Q301.666 265.001 301.439 265.38Q301.212 265.759 300.967 266.127Q300.721 266.494 300.458 266.849Q300.195 267.204 299.914 267.546Q299.634 267.887 299.337 268.215Q299.04 268.542 298.728 268.854Q298.416 269.167 298.088 269.464Q297.761 269.76 297.419 270.041Q297.078 270.321 296.723 270.584Q296.368 270.848 296 271.093Q295.633 271.338 295.254 271.566Q294.875 271.793 294.485 272.001Q294.096 272.209 293.696 272.398Q293.297 272.587 292.888 272.756Q292.48 272.925 292.064 273.074Q291.648 273.223 291.225 273.351Q290.802 273.48 290.374 273.587Q289.945 273.694 289.512 273.781Q289.078 273.867 288.641 273.932Q288.204 273.997 287.764 274.04Q287.325 274.083 286.883 274.105Q286.442 274.127 286 274.127L286 274.127Q285.558 274.127 285.117 274.105Q284.675 274.083 284.236 274.04Q283.796 273.997 283.359 273.932Q282.922 273.867 282.488 273.781Q282.055 273.694 281.626 273.587Q281.198 273.48 280.775 273.351Q280.352 273.223 279.936 273.074Q279.52 272.925 279.112 272.756Q278.703 272.587 278.304 272.398Q277.905 272.209 277.515 272.001Q277.125 271.793 276.746 271.566Q276.367 271.338 276 271.093Q275.632 270.847 275.277 270.584Q274.922 270.321 274.581 270.041Q274.239 269.76 273.912 269.464Q273.585 269.167 273.272 268.854Q272.96 268.542 272.663 268.215Q272.366 267.887 272.086 267.546Q271.805 267.204 271.542 266.849Q271.279 266.494 271.034 266.127Q270.788 265.759 270.561 265.38Q270.334 265.001 270.125 264.612Q269.917 264.222 269.728 263.822Q269.539 263.423 269.37 263.015Q269.201 262.607 269.052 262.19Q268.903 261.774 268.775 261.352Q268.647 260.929 268.539 260.5Q268.432 260.072 268.346 259.638Q268.26 259.205 268.195 258.768Q268.13 258.331 268.087 257.891Q268.043 257.451 268.022 257.01Q268 256.568 268 256.126L268 190.126Q268 189.684 268.022 189.243Q268.043 188.801 268.087 188.362Q268.13 187.922 268.195 187.485Q268.26 187.048 268.346 186.614Q268.432 186.181 268.539 185.752Q268.647 185.324 268.775 184.901Q268.903 184.478 269.052 184.062Q269.201 183.646 269.37 183.238Q269.539 182.829 269.728 182.43Q269.917 182.031 270.125 181.641Q270.334 181.251 270.561 180.872Q270.788 180.493 271.034 180.126Q271.279 179.758 271.542 179.403Q271.805 179.048 272.086 178.707Q272.366 178.365 272.663 178.038Q272.96 177.71 273.272 177.398Q273.585 177.086 273.912 176.789Q274.239 176.492 274.581 176.212Q274.922 175.931 275.277 175.668Q275.632 175.405 276 175.16Q276.367 174.914 276.746 174.687Q277.125 174.46 277.515 174.251Q277.905 174.043 278.304 173.854Q278.703 173.665 279.112 173.496Q279.52 173.327 279.936 173.178Q280.352 173.029 280.775 172.901Q281.198 172.773 281.626 172.665Q282.055 172.558 282.488 172.472Q282.922 172.386 283.359 172.321Q283.796 172.256 284.236 172.213Q284.675 172.169 285.117 172.148Q285.558 172.126 286 172.126Z" id="Rectangle" fill="#FFFFFF" fill-rule="evenodd" stroke="none" clip-path="url(#clip_1)" />
    <path d="M286 132.126C295.943 132.126 304 140.184 304 150.126L304 150.126C304 160.069 295.943 168.126 286 168.126L286 168.126C276.058 168.126 268 160.069 268 150.126L268 150.126C268 140.184 276.058 132.126 286 132.126Z" id="Rectangle" fill="#FFFFFF" stroke="none" clip-path="url(#clip_1)" />
    <path d="M1004 335L347 335.001L347 28L1004 27.9998Q1004.88 27.9998 1005.77 28.0432Q1006.65 28.0866 1007.53 28.1732Q1008.41 28.2598 1009.28 28.3895Q1010.16 28.5192 1011.02 28.6916Q1011.89 28.864 1012.75 29.0787Q1013.61 29.2934 1014.45 29.55Q1015.3 29.8065 1016.13 30.1042Q1016.96 30.402 1017.78 30.7402Q1018.59 31.0784 1019.39 31.4562Q1020.19 31.8341 1020.97 32.2507Q1021.75 32.6673 1022.51 33.1216Q1023.27 33.5759 1024 34.0669Q1024.74 34.5579 1025.45 35.0844Q1026.16 35.6108 1026.84 36.1715Q1027.52 36.7321 1028.18 37.3256Q1028.83 37.9191 1029.46 38.544Q1030.08 39.1689 1030.68 39.8237Q1031.27 40.4785 1031.83 41.1617Q1032.39 41.8448 1032.92 42.5547Q1033.44 43.2645 1033.93 43.9993Q1034.42 44.7341 1034.88 45.4921Q1035.33 46.2502 1035.75 47.0296Q1036.17 47.809 1036.54 48.6079Q1036.92 49.4068 1037.26 50.2232Q1037.6 51.0397 1037.9 51.8718Q1038.19 52.7039 1038.45 53.5496Q1038.71 54.3953 1038.92 55.2526Q1039.14 56.1098 1039.31 56.9766Q1039.48 57.8434 1039.61 58.7175Q1039.74 59.5917 1039.83 60.4712Q1039.91 61.3507 1039.96 62.2334Q1040 63.1161 1040 63.9999L1040 299Q1040 299.884 1039.96 300.767Q1039.91 301.649 1039.83 302.529Q1039.74 303.408 1039.61 304.283Q1039.48 305.157 1039.31 306.024Q1039.14 306.89 1038.92 307.748Q1038.71 308.605 1038.45 309.451Q1038.19 310.296 1037.9 311.128Q1037.6 311.96 1037.26 312.777Q1036.92 313.593 1036.54 314.392Q1036.17 315.191 1035.75 315.971Q1035.33 316.75 1034.88 317.508Q1034.42 318.266 1033.93 319.001Q1033.44 319.736 1032.92 320.446Q1032.39 321.155 1031.83 321.839Q1031.27 322.522 1030.68 323.177Q1030.08 323.831 1029.46 324.456Q1028.83 325.081 1028.18 325.675Q1027.52 326.268 1026.84 326.829Q1026.16 327.389 1025.45 327.916Q1024.74 328.442 1024 328.933Q1023.27 329.424 1022.51 329.879Q1021.75 330.333 1020.97 330.75Q1020.19 331.166 1019.39 331.544Q1018.59 331.922 1017.78 332.26Q1016.96 332.598 1016.13 332.896Q1015.3 333.194 1014.45 333.45Q1013.61 333.707 1012.75 333.921Q1011.89 334.136 1011.02 334.309Q1010.16 334.481 1009.28 334.611Q1008.41 334.74 1007.53 334.827Q1006.65 334.914 1005.77 334.957Q1004.88 335 1004 335Z" id="row-back" fill="#FFFFFF" fill-rule="evenodd" stroke="none" clip-path="url(#clip_1)" />
    <g id="ROW" clip-path="url(#clip_2)" transform="translate(347 -42.020004)">
      <g transform="translate(33.039978, 61.6)" id="ROW" fill="#3B88C3">
        <path d="M67.48 254.52Q67.48 259 40.88 259Q14 259 14 254.8L14 72.24Q14 62.44 24.36 62.44L77.84 62.44Q151.48 62.44 151.48 119.84Q151.48 137.2 144.76 151.34Q138.04 165.48 125.72 173.88L161 232.68Q158.76 239.4 146.44 248.08Q129.64 260.12 118.72 260.12Q107.8 260.12 102.48 252.28L76.16 190.96L67.48 190.96L67.48 254.52ZM67.48 112L67.48 154L68.88 154Q95.48 154 95.48 131.88Q95.48 121.8 90.3 116.9Q85.12 112 73.36 112L67.48 112ZM262.5 261.24Q223.16 261.24 198.38 235.48Q173.6 209.72 173.6 160.3Q173.6 110.88 198.66 85.4Q223.72 59.92 263.34 59.92Q302.96 59.92 327.32 84.98Q351.68 110.04 351.68 160.86Q351.68 211.68 326.76 236.46Q301.84 261.24 262.5 261.24ZM262.64 113.68Q249.2 113.68 240.1 126Q231 138.32 231 160.58Q231 182.84 239.68 194.74Q248.36 206.64 262.5 206.64Q276.64 206.64 285.46 194.6Q294.28 182.56 294.28 160.16Q294.28 137.76 285.18 125.72Q276.08 113.68 262.64 113.68ZM365.96 65.24Q365.12 62.16 394.24 62.16Q426.44 62.16 427.28 67.48L441 185.36L470.68 66.08Q472.08 61.88 492.52 61.88Q512.96 61.88 514.36 65.8L543.48 185.92L559.72 66.92Q560.28 63.84 572.6 62.72Q584.92 61.6 592.48 61.6Q621.88 61.6 621.04 65.52L587.16 251.16Q586.04 255.36 571.2 257.32Q556.36 259.28 547.12 259.28Q512.4 259.28 510.72 251.44L491.68 174.44L470.96 251.16Q469.84 256.2 451.36 258.44Q441.84 259.28 432.32 259.28L414.4 258.44Q395.92 256.48 394.8 251.44L365.96 65.24Z" />
      </g>
    </g>
  </g>
</svg>