
<svg xmlns="http://www.w3.org/2000/svg" viewBox="0 0 24 24" width="24" height="24" color="#171717" fill="none">
    <path d="M12 2C16.0588 2 19.5 5.42803 19.5 9.5869C19.5 13.812 16.0028 16.777 12.7725 18.7932C12.5371 18.9287 12.2709 19 12 19C11.7291 19 11.4629 18.9287 11.2275 18.7932C8.00325 16.7573 4.5 13.8266 4.5 9.5869C4.5 5.42803 7.9412 2 12 2Z" stroke="currentColor" stroke-width="0.5" fill="blue" />
    <path d="M15 9.5C15 11.1569 13.6569 12.5 12 12.5C10.3431 12.5 9 11.1569 9 9.5C9 7.84315 10.3431 6.5 12 6.5C13.6569 6.5 15 7.84315 15 9.5Z" stroke="currentColor" stroke-width="0" fill="#fff" />
    <!-- <path d="M18 20C18 21.1046 15.3137 22 12 22C8.68629 22 6 21.1046 6 20" stroke="currentColor" stroke-width="1.5" stroke-linecap="round" /> -->
</svg>

<svg xmlns="http://www.w3.org/2000/svg" viewBox="0 0 24 24" width="24" height="24" color="#171717" fill="none">
    <path d="M13.6177 21.367C13.1841 21.773 12.6044 22 12.0011 22C11.3978 22 10.8182 21.773 10.3845 21.367C6.41302 17.626 1.09076 13.4469 3.68627 7.37966C5.08963 4.09916 8.45834 2 12.0011 2C15.5439 2 18.9126 4.09916 20.316 7.37966C22.9082 13.4393 17.599 17.6389 13.6177 21.367Z" stroke="currentColor" stroke-width="0.5" fill="blue" />
    <path d="M15.5 11C15.5 12.933 13.933 14.5 12 14.5C10.067 14.5 8.5 12.933 8.5 11C8.5 9.067 10.067 7.5 12 7.5C13.933 7.5 15.5 9.067 15.5 11Z" stroke="currentColor" stroke-width="0" fill="#fff" />
</svg>